<svg width="16" height="14" viewBox="0 0 16 14" fill="none" xmlns="http://www.w3.org/2000/svg">
<path fill-rule="evenodd" clip-rule="evenodd" d="M9.70453 1.12163L15.358 10.9334C15.4824 11.2263 15.5369 11.4644 15.5524 11.7118C15.5835 12.2898 15.3814 12.8517 14.9848 13.284C14.5882 13.7148 14.0516 13.9692 13.4683 14H2.08359C1.84252 13.9854 1.60145 13.9306 1.37593 13.8459C0.248346 13.3911 -0.296007 12.1118 0.162804 11.0028L5.85518 1.11469C6.04959 0.767105 6.3451 0.467303 6.71059 0.274629C7.76819 -0.311873 9.11352 0.0734762 9.70453 1.12163ZM8.45253 7.58781C8.45253 7.95774 8.14924 8.26679 7.77597 8.26679C7.4027 8.26679 7.09164 7.95774 7.09164 7.58781V5.4075C7.09164 5.0368 7.4027 4.73699 7.77597 4.73699C8.14924 4.73699 8.45253 5.0368 8.45253 5.4075V7.58781ZM7.77597 10.9025C7.4027 10.9025 7.09164 10.5935 7.09164 10.2243C7.09164 9.85358 7.4027 9.5453 7.77597 9.5453C8.14924 9.5453 8.45253 9.84664 8.45253 10.2158C8.45253 10.5935 8.14924 10.9025 7.77597 10.9025Z" fill="#E86F78"/>
</svg>
