<svg width="25" height="24" viewBox="0 0 25 24" fill="none" xmlns="http://www.w3.org/2000/svg">
<path d="M12.1488 2.16136C15.3557 2.16136 15.7355 2.17542 16.9967 2.23169C18.1688 2.28326 18.8017 2.48017 19.2236 2.64427C19.7816 2.85993 20.1848 3.12248 20.602 3.53975C21.024 3.96171 21.2819 4.36023 21.4975 4.91815C21.6616 5.34011 21.8585 5.97773 21.9101 7.14515C21.9664 8.41102 21.9804 8.79078 21.9804 11.993C21.9804 15.1998 21.9664 15.5796 21.9101 16.8408C21.8585 18.0129 21.6616 18.6458 21.4975 19.0678C21.2819 19.6257 21.0193 20.0289 20.602 20.4462C20.1801 20.8681 19.7816 21.126 19.2236 21.3417C18.8017 21.5058 18.1641 21.7027 16.9967 21.7542C15.7308 21.8105 15.351 21.8246 12.1488 21.8246C8.94195 21.8246 8.56219 21.8105 7.30101 21.7542C6.1289 21.7027 5.49597 21.5058 5.07401 21.3417C4.51609 21.126 4.11288 20.8635 3.69562 20.4462C3.27366 20.0242 3.01579 19.6257 2.80013 19.0678C2.63603 18.6458 2.43912 18.0082 2.38755 16.8408C2.33129 15.5749 2.31722 15.1952 2.31722 11.993C2.31722 8.78609 2.33129 8.40633 2.38755 7.14515C2.43912 5.97304 2.63603 5.34011 2.80013 4.91815C3.01579 4.36023 3.27835 3.95702 3.69562 3.53975C4.11757 3.1178 4.51609 2.85993 5.07401 2.64427C5.49597 2.48017 6.13359 2.28326 7.30101 2.23169C8.56219 2.17542 8.94195 2.16136 12.1488 2.16136ZM12.1488 0C8.89038 0 8.48249 0.0140652 7.20255 0.0703262C5.9273 0.126587 5.05057 0.332877 4.29104 0.628248C3.4987 0.937683 2.82826 1.34558 2.1625 2.01602C1.49206 2.68177 1.08417 3.35222 0.774732 4.13987C0.479362 4.90408 0.273072 5.77613 0.216811 7.05138C0.16055 8.336 0.146484 8.7439 0.146484 12.0023C0.146484 15.2608 0.16055 15.6687 0.216811 16.9486C0.273072 18.2239 0.479362 19.1006 0.774732 19.8601C1.08417 20.6525 1.49206 21.3229 2.1625 21.9887C2.82826 22.6544 3.4987 23.067 4.28636 23.3718C5.05057 23.6671 5.92261 23.8734 7.19786 23.9297C8.4778 23.9859 8.88569 24 12.1441 24C15.4026 24 15.8105 23.9859 17.0904 23.9297C18.3657 23.8734 19.2424 23.6671 20.0019 23.3718C20.7896 23.067 21.46 22.6544 22.1258 21.9887C22.7915 21.3229 23.2041 20.6525 23.5089 19.8648C23.8042 19.1006 24.0105 18.2286 24.0668 16.9533C24.123 15.6734 24.1371 15.2655 24.1371 12.007C24.1371 8.74858 24.123 8.34069 24.0668 7.06075C24.0105 5.78551 23.8042 4.90877 23.5089 4.14925C23.2135 3.35222 22.8056 2.68177 22.1352 2.01602C21.4694 1.35026 20.799 0.937683 20.0113 0.632936C19.2471 0.337566 18.375 0.131276 17.0998 0.0750147C15.8152 0.0140653 15.4073 0 12.1488 0Z" fill="white"/>
<path d="M12.1487 5.83716C8.74488 5.83716 5.9834 8.59864 5.9834 12.0024C5.9834 15.4062 8.74488 18.1677 12.1487 18.1677C15.5525 18.1677 18.3139 15.4062 18.3139 12.0024C18.3139 8.59864 15.5525 5.83716 12.1487 5.83716ZM12.1487 16.0016C9.94042 16.0016 8.14945 14.2107 8.14945 12.0024C8.14945 9.79418 9.94042 8.00321 12.1487 8.00321C14.3569 8.00321 16.1479 9.79418 16.1479 12.0024C16.1479 14.2107 14.3569 16.0016 12.1487 16.0016Z" fill="white"/>
<path d="M19.9973 5.59315C19.9973 6.39019 19.3503 7.0325 18.558 7.0325C17.761 7.0325 17.1187 6.3855 17.1187 5.59315C17.1187 4.79612 17.7657 4.15381 18.558 4.15381C19.3503 4.15381 19.9973 4.80081 19.9973 5.59315Z" fill="white"/>
</svg>
