<svg width="1440" height="1200" viewBox="0 0 1440 1200" fill="none" xmlns="http://www.w3.org/2000/svg">
<g clip-path="url(#clip0)">
<rect width="1440" height="1200" fill="white"/>
<path fill-rule="evenodd" clip-rule="evenodd" d="M655.5 174.5C863.5 311.5 1111.39 202.755 1265.13 366.179C1418.87 529.603 1556.58 564.165 1737.51 443.44C1931.06 314.287 1824.12 4.39464 1552.55 -19.9808C1477.11 -33.6088 1308 -70.9632 1265.13 -114.111C1222.26 -157.26 1246.4 -272.164 1124.87 -351.321C759.148 -589.53 127.5 -263.5 655.5 174.5Z" fill="#E4F1F5"/>
<path fill-rule="evenodd" clip-rule="evenodd" d="M-21.5381 813.254C263.602 676.066 523.402 935.523 526.211 937.334C529.108 939.2 531.984 941.171 534.77 943.087C540.429 946.976 546.599 950.375 552.237 954.231C555.68 956.582 559.906 957.868 563.549 959.9C570.557 963.758 578.126 967.016 586.143 969.623C589.396 970.618 592.378 972.013 594.985 973.76C596.914 975.128 599.67 974.416 601.776 975.43C605.184 977.072 609.013 978.229 612.615 979.646C613.638 980.262 615.075 980.358 616.374 979.898L617.616 982.429C618.913 982.932 618.364 981.672 619.248 981.515C620.814 981.982 622.707 982.156 623.807 983.485C624.838 984.736 627.02 983.851 628.528 984.649C631.82 986.373 637.07 985.533 639.261 988.82C643.403 988.747 646.663 990.476 650.38 991.275C652.217 991.581 653.774 992.401 654.78 993.582L655.003 993.861C655.846 995.111 658.939 993.251 659.228 995.371C666.168 995.706 670.593 999.578 675.833 1002.03C684.239 1005.96 693.155 1009.38 700.588 1014.54C704.307 1017.12 709.266 1018.87 713.128 1021.44C721.81 1027.21 731.084 1032.48 738.75 1039.15C741.915 1041.9 745.957 1044.03 749.087 1046.82L752.704 1050.04C758.119 1054.87 763.462 1059.76 768.354 1064.95C769.739 1065.99 770.676 1067.34 771.058 1068.86C771.225 1070.71 774.099 1070.57 775.287 1071.94C776.709 1073.56 776.895 1075.65 778.847 1077.16C779.923 1077.99 780.674 1079.8 781.918 1080.76C785.96 1083.9 786.912 1088.69 791.059 1091.74C792.314 1093.09 793.132 1094.68 793.453 1096.39C795.63 1101.56 800.858 1105.39 802.088 1110.87C802.743 1113.55 804.21 1116 806.37 1118.02L807.221 1118.79C807.847 1119.37 808.402 1119.95 808.266 1120.61C807.725 1123.2 809.605 1125.05 810.581 1127.13L810.735 1127.48C811.714 1129.86 813.789 1131.85 814.414 1134.46C814.684 1137.18 815.581 1139.78 817.064 1142.15C820.225 1145.85 820.853 1150.23 822.265 1154.4C822.971 1156.48 824.924 1158.42 823.121 1161.09C822.203 1162.45 826.416 1162.2 825.119 1164.17L824.959 1164.39C823.913 1165.69 824.65 1166.64 825.869 1167.6C826.984 1168.49 824.945 1170.45 826.429 1171.19C827.913 1171.92 829.341 1173.35 828.627 1173.96C826.851 1175.5 830.188 1176.15 828.622 1177.33C828.494 1177.48 828.459 1177.66 828.527 1177.82C830.751 1182.21 829.468 1187.3 831.407 1191.82C832.423 1194.58 832.731 1197.54 832.316 1200.52C832.171 1203.28 832.32 1206.02 832.762 1208.7C833.292 1213.32 831.981 1218.02 832.571 1222.59C832.729 1223.82 829.005 1225.18 832.183 1226.34C830.508 1227.85 832.195 1229.09 832.042 1230.45C831.642 1231.61 831.021 1232.74 830.199 1233.79C830.946 1236.32 830.893 1239.02 830.043 1241.67C829.125 1247.13 827.77 1252.57 825.985 1257.97L824.499 1262.41C822.507 1268.34 820.311 1274.26 816.062 1279.74C814.969 1281.14 816.543 1282.06 815.738 1283.35C811.104 1290.89 807.425 1298.68 801.103 1305.75C798.46 1308.71 796.997 1312.41 794.311 1315.45C789.221 1321.23 785.043 1327.39 779.097 1332.84L778.028 1333.8C774.163 1337.16 770.774 1341.07 766.918 1344.58C759.154 1352.02 750.371 1358.8 740.757 1364.78L734.749 1368.36C729.408 1371.54 724.035 1374.68 718.399 1377.55C715.731 1378.9 712.704 1379.52 710.384 1380.94C708.127 1382.32 705.579 1383.36 702.901 1383.98C700.799 1384.49 700.042 1386.39 697.628 1386.73C695.623 1386.76 693.665 1387.57 692.376 1388.86L692.127 1389.13C691.461 1389.98 689.103 1390.13 687.506 1390.59C685.269 1391.38 682.96 1392 680.614 1392.43C678.718 1392.65 677.912 1395.26 675.614 1394C674.432 1396.04 526.459 1436.69 437.336 1541.59C430.763 1551.12 420.653 1558.79 412.664 1567.58C408.953 1571.67 403.981 1575.11 399.515 1578.83L398.566 1579.64C390.762 1586.32 382.237 1592.43 373.772 1598.59C365.956 1604.2 357.732 1609.44 349.154 1614.28C343.013 1617.8 336.685 1621.11 330.62 1624.71C328.16 1626.17 324.681 1626.06 322.93 1628.43C316.42 1630.05 311.368 1634.32 304.771 1635.78C301.543 1638.43 297.272 1639.13 293.264 1640.06C290.202 1640.76 288.522 1643.17 285.243 1643.61C282.149 1643.86 279.098 1644.73 276.398 1646.15C272.17 1648.87 267.332 1649.56 262.709 1650.92C251.967 1654.08 241.175 1657.1 230.333 1659.98C226.78 1660.92 223.392 1662.85 219.471 1662.39C216.032 1661.98 212.962 1664.75 209.369 1664.05C208.06 1663.79 207.866 1665.6 206.239 1665.72C203.064 1665.94 200.302 1668.13 196.746 1667.49C194.112 1667.01 191.463 1669.46 188.456 1668.81L188.044 1668.7C186.122 1668.1 185.011 1672.23 182.364 1670.1C178.664 1671.62 174.732 1671.62 170.888 1672.18C167.706 1672.64 164.919 1674.58 161.392 1674.05C158.387 1673.6 155.294 1676.49 152.067 1675.2C147.769 1677.23 142.992 1676.41 138.486 1677.76C134.978 1678.66 131.385 1679.19 127.804 1679.36C122.269 1679.82 116.732 1680.42 111.217 1681.11C109.226 1681.34 107.232 1681.48 105.246 1681.54C104.142 1681.58 103.377 1680.88 102.024 1681.27C93.4542 1683.73 84.7026 1683.57 76.1337 1683.87C71.3992 1684.26 66.6769 1684.36 62.0122 1684.16L60.4594 1684.08C59.0337 1683.94 56.7571 1684.62 55.2827 1684.18C51.1745 1682.93 46.7128 1683.51 42.405 1683.65L41.6885 1683.67C39.2727 1683.76 36.8928 1683.58 34.6235 1683.13C34.1928 1683.05 33.749 1682.62 33.4169 1682.71C27.2483 1684.36 21.6862 1682.63 15.8926 1682.34C10.9102 1682.09 6.07914 1681.19 1.12548 1680.87L-0.738416 1680.78C-12.0547 1680.45 -153.583 1651.18 -172.618 1643.54L-178.065 1641.35C-183.513 1639.16 -188.945 1636.92 -194.197 1634.5L-198.668 1632.43C-203.14 1630.36 -207.593 1628.25 -211.823 1625.96L-217.477 1622.91C-228.774 1616.79 -239.988 1610.57 -250.601 1603.75C-260.068 1597.66 -268.948 1591.12 -277.864 1584.58C-283.584 1580.38 -288.993 1576 -294.178 1571.41C-302.463 1564.08 -310.512 1556.58 -318.324 1548.93C-325.664 1541.72 -330.679 1533.23 -338.544 1526.39C-340.397 1520.76 -346.662 1517.15 -348.294 1511.42C-351.266 1509.64 -351.858 1506.58 -353.383 1504.14C-354.959 1501.63 -357.496 1499.42 -357.876 1496.28C-358.043 1494.86 -360.408 1494.18 -360.593 1492.43C-360.543 1490.88 -361.39 1489.46 -362.904 1488.58C-361.15 1486.72 -364.691 1486.85 -364.499 1485.3C-364.296 1483.62 -364.814 1482.01 -365.97 1480.7C-368.795 1477.91 -368.328 1473.84 -370.712 1471.24C-373.158 1468.57 -372.9 1465.19 -374.695 1462.61L-375.056 1462.14C-377.741 1458.91 -376.188 1454.76 -378.299 1451.5C-378.483 1451.22 -377.754 1450.52 -377.449 1450C-378.108 1449.36 -379.088 1450.05 -380.252 1449.86C-379.557 1448.48 -379.101 1447.06 -378.896 1445.62C-379.167 1443.93 -379.668 1442.27 -380.39 1440.7L-385.59 1439.25C-385.603 1437 -387.076 1435.65 -386.446 1433.57C-386.173 1432.67 -387.779 1431.07 -388.544 1429.81C-389.55 1428.15 -387.379 1425.82 -388.944 1424.88C-390.484 1423.67 -391.386 1422.04 -391.503 1420.26C-396.485 1405.26 -401.383 1390.24 -406.197 1375.2C-406.721 1373.59 -408.322 1372.02 -406.535 1370.07C-410.449 1369.37 -406.879 1366.75 -407.88 1365.19C-408.547 1363.59 -408.735 1361.86 -408.43 1360.12C-408.377 1357.11 -410.156 1354.25 -410.991 1351.29C-411.987 1349.39 -412.238 1347.24 -411.714 1345.1C-410.968 1343.16 -412.622 1341.21 -412.594 1338.98C-412.319 1336.17 -412.525 1333.38 -413.206 1330.7C-414.064 1328.95 -414.241 1326.99 -413.718 1325.04C-413.166 1323.44 -415.633 1321.85 -413.733 1319.92C-415.074 1316.68 -414.31 1313.19 -414.314 1309.78L-414.324 1309.14C-414.54 1300.48 -414.082 1291.75 -412.953 1283C-412.061 1275.67 -411.328 1268.34 -410.345 1261.01C-410.016 1258.64 -409.59 1256.22 -409.055 1253.86C-407.422 1245.35 -405.192 1236.85 -402.375 1228.42C-399.617 1220.97 -397.28 1213.44 -394.103 1206.03C-392.415 1202.08 -391.7 1197.89 -390.21 1193.85C-386.706 1184.31 -382.886 1174.83 -378.462 1165.44C-374.998 1157.13 -370.54 1149 -365.151 1141.17C-363.624 1139.14 -362.805 1136.83 -361.427 1134.72C-359.563 1132.44 -357.896 1130.08 -356.437 1127.65C-354.999 1124.45 -352.465 1121.64 -350.904 1118.56C-349.692 1116.18 -345.721 1115.3 -345.868 1112.12C-345.973 1109.82 -341.328 1108.45 -341.347 1105.7C-337.54 1103.74 -337.627 1100.13 -334.733 1097.54L-334.338 1097.21C-331.143 1094.69 -329.493 1090.99 -327.165 1087.8C-325.06 1084.53 -322.691 1081.35 -320.073 1078.27C-314.91 1072.86 -311.46 1066.74 -306.499 1061.33C-301.766 1056.17 -298.351 1050.31 -292.391 1045.84C-290.982 1044.78 -291.997 1043.9 -291.198 1042.92C-290.368 1041.91 -288.897 1041.61 -288.228 1040.58C-285.348 1036.47 -306.678 950.442 -21.5381 813.254Z" fill="#FCF2F0"/>
</g>
<defs>
<clipPath id="clip0">
<rect width="1440" height="1200" fill="white"/>
</clipPath>
</defs>
</svg>
