<svg width="20" height="24" viewBox="0 0 20 24" fill="none" xmlns="http://www.w3.org/2000/svg">
<path fill-rule="evenodd" clip-rule="evenodd" d="M9.60515 0C6.08432 0 3.23013 2.86637 3.23013 6.40221C3.23013 9.93805 6.08432 12.8044 9.60515 12.8044C13.126 12.8044 15.9802 9.93805 15.9802 6.40221C15.9802 2.86637 13.126 0 9.60515 0ZM9.60515 1.7372C12.1706 1.7372 14.2504 3.82579 14.2504 6.4022C14.2504 8.97861 12.1706 11.0672 9.60515 11.0672C7.03968 11.0672 4.95996 8.97861 4.95996 6.4022C4.95996 3.82579 7.03968 1.7372 9.60515 1.7372ZM6.99606 15.3851C6.0628 15.4498 5.11945 15.5831 4.18896 15.7825C2.39301 16.1524 0.956223 16.8916 0.344687 18.1198C0.114033 18.6002 -0.0019324 19.1145 2.4354e-05 19.6353C-0.000667611 20.1522 0.114359 20.6672 0.336741 21.1383C0.923932 22.3525 2.19336 23.0396 3.90749 23.4205L4.21455 23.4846C5.11978 23.6888 6.06341 23.8263 7.01336 23.8908C7.09426 23.9146 7.28709 23.9366 7.49755 23.9474L7.67066 23.9538C7.75967 23.9559 7.86069 23.9564 8.01121 23.9564C9.37661 24.0315 10.7921 24.0097 12.201 23.8897C12.9518 23.8384 13.7077 23.7402 14.4573 23.5963L15.0181 23.4799C16.8691 23.1147 18.2551 22.4203 18.8623 21.1397C19.3125 20.1889 19.3125 19.0856 18.8625 18.1353C18.2568 16.8579 16.8884 16.1693 15.004 15.7811C14.2647 15.6232 13.5134 15.5064 12.7568 15.4319L12.2036 15.3851C10.4711 15.2322 8.72859 15.2322 6.99606 15.3851ZM12.0523 17.1156L12.0675 17.1168C12.9359 17.1779 13.7989 17.2998 14.6504 17.4816C16.0501 17.7699 17 18.248 17.3005 18.8817C17.5268 19.3596 17.5268 19.9149 17.3003 20.3932C17.0195 20.9854 16.1664 21.4429 14.9334 21.7225L14.6634 21.7797C13.7952 21.9734 12.935 22.0983 12.0691 22.1576C10.7255 22.2719 9.38994 22.2925 8.05772 22.2205L7.5854 22.2124C7.45428 22.2057 7.34378 22.1931 7.24137 22.1725C6.43047 22.1113 5.7008 22.0144 4.99232 21.874L4.5693 21.7844C3.16525 21.5093 2.20698 21.0291 1.89629 20.3868C1.78757 20.1563 1.7295 19.8964 1.72985 19.6331C1.72887 19.3714 1.78618 19.1172 1.89742 18.8854C2.19952 18.2789 3.21504 17.7565 4.54327 17.4828C5.40088 17.2991 6.26354 17.1772 7.13153 17.1168C8.77924 16.9716 10.4205 16.9716 12.0523 17.1156Z" fill="#FBFCFF"/>
</svg>
