<svg width="24" height="24" viewBox="0 0 24 24" fill="none" xmlns="http://www.w3.org/2000/svg">
<path fill-rule="evenodd" clip-rule="evenodd" d="M11.5338 0C5.16388 0 0 5.04983 0 11.2791C0 17.5084 5.16388 22.5582 11.5338 22.5582C14.2583 22.5582 16.7621 21.6345 18.7356 20.0898L22.4845 23.7464L22.5842 23.8303C22.9323 24.0822 23.4257 24.0536 23.7407 23.7448C24.0871 23.4051 24.0864 22.8551 23.739 22.5163L20.0342 18.9028C21.9179 16.8952 23.0677 14.2185 23.0677 11.2791C23.0677 5.04983 17.9038 0 11.5338 0ZM11.5339 1.73729C16.9227 1.73729 21.2912 6.00931 21.2912 11.2791C21.2912 16.5489 16.9227 20.8209 11.5339 20.8209C6.14503 20.8209 1.77653 16.5489 1.77653 11.2791C1.77653 6.00931 6.14503 1.73729 11.5339 1.73729Z" fill="#FBFCFF"/>
</svg>
