<svg width="375" height="812" viewBox="0 0 375 812" fill="none" xmlns="http://www.w3.org/2000/svg">
<g clip-path="url(#clip0)">
<rect width="375" height="812" fill="white"/>
<path fill-rule="evenodd" clip-rule="evenodd" d="M129.85 57.4204C195.028 100.35 272.706 66.2744 320.882 117.484C369.057 168.694 412.209 179.524 468.904 141.694C529.556 101.224 496.045 4.11686 410.946 -3.52133C387.306 -7.79175 334.314 -19.497 320.882 -33.0177C307.449 -46.5385 315.012 -82.5446 276.93 -107.349C162.329 -181.993 -35.6015 -79.8295 129.85 57.4204Z" fill="#E4F1F5"/>
<path fill-rule="evenodd" clip-rule="evenodd" d="M24.5596 676.863C125.107 628.487 216.72 719.978 217.711 720.617C218.732 721.275 219.746 721.97 220.728 722.645C222.724 724.017 224.9 725.215 226.888 726.575C228.102 727.404 229.592 727.857 230.877 728.574C233.348 729.935 236.017 731.083 238.844 732.003C239.991 732.354 241.043 732.846 241.962 733.462C242.642 733.944 243.614 733.693 244.357 734.05C245.558 734.629 246.908 735.037 248.179 735.537C248.539 735.754 249.046 735.788 249.504 735.626L249.942 736.518C250.399 736.696 250.206 736.251 250.517 736.196C251.07 736.361 251.737 736.422 252.125 736.891C252.489 737.332 253.258 737.02 253.79 737.301C254.951 737.909 256.802 737.613 257.575 738.772C259.035 738.746 260.185 739.356 261.496 739.638C262.143 739.746 262.692 740.035 263.047 740.451L263.126 740.55C263.423 740.99 264.514 740.334 264.615 741.082C267.063 741.2 268.623 742.566 270.471 743.43C273.435 744.817 276.579 746.022 279.2 747.842C280.512 748.752 282.26 749.368 283.622 750.274C286.684 752.308 289.954 754.166 292.657 756.518C293.773 757.49 295.199 758.242 296.302 759.224L297.578 760.359C299.487 762.065 301.371 763.789 303.096 765.618C303.585 765.983 303.915 766.46 304.05 766.995C304.109 767.65 305.122 767.6 305.541 768.083C306.042 768.654 306.108 769.392 306.797 769.924C307.176 770.216 307.441 770.853 307.879 771.193C309.305 772.3 309.64 773.988 311.103 775.066C311.545 775.541 311.834 776.1 311.947 776.703C312.715 778.526 314.558 779.878 314.992 781.81C315.223 782.755 315.74 783.618 316.502 784.332L316.802 784.604C317.022 784.807 317.218 785.013 317.17 785.244C316.98 786.158 317.642 786.809 317.987 787.543L318.041 787.666C318.386 788.507 319.118 789.21 319.338 790.13C319.433 791.088 319.75 792.006 320.273 792.84C321.388 794.145 321.609 795.691 322.107 797.161C322.356 797.895 323.044 798.579 322.409 799.52C322.085 799.999 323.571 799.911 323.113 800.604L323.057 800.682C322.688 801.143 322.948 801.475 323.378 801.815C323.771 802.127 323.052 802.819 323.575 803.079C324.098 803.34 324.602 803.843 324.35 804.058C323.724 804.599 324.901 804.828 324.348 805.244C324.303 805.299 324.291 805.363 324.315 805.42C325.099 806.966 324.647 808.762 325.331 810.355C325.689 811.33 325.797 812.371 325.651 813.424C325.6 814.396 325.653 815.361 325.808 816.308C325.995 817.937 325.533 819.595 325.741 821.205C325.797 821.641 324.484 822.118 325.604 822.529C325.013 823.06 325.608 823.498 325.554 823.977C325.413 824.386 325.194 824.784 324.905 825.156C325.168 826.047 325.149 826.999 324.849 827.934C324.526 829.857 324.048 831.777 323.418 833.68L322.895 835.247C322.192 837.339 321.418 839.427 319.919 841.357C319.534 841.853 320.089 842.175 319.805 842.631C318.171 845.29 316.874 848.038 314.645 850.53C313.712 851.573 313.197 852.877 312.249 853.951C310.454 855.989 308.981 858.16 306.885 860.083L306.508 860.42C305.145 861.606 303.95 862.985 302.59 864.223C299.852 866.845 296.755 869.237 293.365 871.346L291.246 872.607C289.363 873.728 287.468 874.837 285.481 875.847C284.54 876.325 283.473 876.544 282.655 877.044C281.859 877.531 280.96 877.896 280.016 878.115C279.275 878.295 279.008 878.967 278.156 879.084C277.45 879.097 276.759 879.381 276.304 879.838L276.217 879.932C275.982 880.231 275.15 880.286 274.587 880.446C273.799 880.726 272.984 880.943 272.157 881.096C271.488 881.174 271.204 882.094 270.394 881.651C269.977 882.369 217.798 896.704 186.371 933.694C184.053 937.055 180.488 939.757 177.671 942.857C176.362 944.299 174.609 945.514 173.034 946.826L172.699 947.109C169.948 949.467 166.941 951.62 163.956 953.793C161.2 955.771 158.3 957.62 155.275 959.327C153.11 960.568 150.878 961.735 148.74 963.004C147.872 963.519 146.646 963.48 146.028 964.317C143.733 964.887 141.951 966.393 139.625 966.909C138.487 967.841 136.981 968.088 135.567 968.416C134.488 968.664 133.895 969.512 132.739 969.669C131.648 969.756 130.572 970.065 129.62 970.564C128.129 971.522 126.423 971.766 124.793 972.246C121.005 973.36 117.199 974.425 113.376 975.441C112.123 975.773 110.928 976.452 109.546 976.29C108.333 976.148 107.25 977.123 105.984 976.875C105.522 976.786 105.454 977.423 104.88 977.463C103.76 977.542 102.786 978.314 101.532 978.087C100.604 977.92 99.6693 978.785 98.6092 978.553L98.4639 978.515C97.7862 978.303 97.3942 979.76 96.4607 979.011C95.1563 979.544 93.7696 979.546 92.4143 979.741C91.2923 979.905 90.3095 980.59 89.0657 980.404C88.0058 980.245 86.9153 981.262 85.7774 980.807C84.2616 981.524 82.5771 981.235 80.9883 981.71C79.7513 982.027 78.4845 982.216 77.2218 982.274C75.2699 982.438 73.3171 982.647 71.3726 982.891C70.6704 982.971 69.9675 983.022 69.2671 983.042C68.8777 983.059 68.608 982.81 68.1308 982.947C65.1089 983.815 62.0229 983.76 59.0013 983.865C57.3318 984.003 55.6666 984.037 54.0217 983.967L53.4741 983.94C52.9714 983.889 52.1686 984.13 51.6487 983.973C50.2 983.535 48.6267 983.737 47.1076 983.786L46.855 983.793C46.0031 983.826 45.1639 983.763 44.3637 983.605C44.2118 983.575 44.0553 983.426 43.9382 983.457C41.763 984.039 39.8017 983.429 37.7587 983.325C36.0018 983.237 34.2982 982.919 32.5514 982.808L31.8942 982.777C27.9037 982.657 -22.0027 972.339 -28.715 969.643L-30.6359 968.872C-32.5571 968.098 -34.4725 967.308 -36.3243 966.454L-37.9011 965.727C-39.4781 964.997 -41.0482 964.253 -42.5399 963.446L-44.5335 962.369C-48.5173 960.211 -52.4715 958.019 -56.214 955.613C-59.5523 953.466 -62.6837 951.158 -65.8278 948.852C-67.8447 947.371 -69.7521 945.827 -71.5804 944.209C-74.502 941.623 -77.3402 938.981 -80.095 936.282C-82.683 933.738 -84.4515 930.745 -87.2248 928.334C-87.8784 926.348 -90.0875 925.076 -90.663 923.055C-91.7112 922.425 -91.9197 921.348 -92.4575 920.489C-93.0132 919.601 -93.9078 918.822 -94.0419 917.717C-94.101 917.214 -94.9348 916.976 -95.0001 916.359C-94.9822 915.81 -95.2811 915.312 -95.8149 915.002C-95.1964 914.344 -96.4451 914.39 -96.3772 913.844C-96.3059 913.252 -96.4884 912.682 -96.8959 912.223C-97.8923 911.237 -97.7277 909.804 -98.5681 908.884C-99.4307 907.945 -99.3397 906.753 -99.9726 905.844L-100.1 905.677C-101.047 904.539 -100.499 903.076 -101.244 901.927C-101.309 901.826 -101.051 901.58 -100.944 901.397C-101.176 901.17 -101.522 901.413 -101.932 901.347C-101.687 900.861 -101.526 900.358 -101.454 899.853C-101.55 899.254 -101.726 898.672 -101.981 898.116L-103.815 897.605C-103.819 896.81 -104.338 896.335 -104.116 895.604C-104.02 895.284 -104.586 894.723 -104.856 894.276C-105.211 893.69 -104.446 892.871 -104.997 892.539C-105.54 892.113 -105.859 891.538 -105.9 890.908C-107.656 885.62 -109.384 880.324 -111.081 875.02C-111.266 874.453 -111.831 873.899 -111.2 873.212C-112.581 872.965 -111.322 872.041 -111.675 871.489C-111.91 870.927 -111.976 870.317 -111.869 869.702C-111.85 868.639 -112.477 867.633 -112.772 866.587C-113.123 865.917 -113.211 865.16 -113.027 864.404C-112.764 863.721 -113.347 863.032 -113.337 862.246C-113.24 861.255 -113.313 860.274 -113.553 859.328C-113.855 858.711 -113.918 858.02 -113.733 857.332C-113.539 856.766 -114.409 856.206 -113.739 855.527C-114.211 854.383 -113.942 853.152 -113.943 851.951L-113.947 851.726C-114.023 848.67 -113.862 845.592 -113.464 842.508C-113.149 839.923 -112.891 837.338 -112.544 834.752C-112.428 833.916 -112.278 833.065 -112.089 832.233C-111.513 829.23 -110.727 826.234 -109.733 823.26C-108.761 820.633 -107.937 817.98 -106.816 815.364C-106.221 813.973 -105.969 812.496 -105.444 811.069C-104.208 807.705 -102.861 804.363 -101.301 801.054C-100.08 798.122 -98.5077 795.255 -96.6072 792.496C-96.0689 791.777 -95.78 790.964 -95.2942 790.221C-94.6369 789.417 -94.0489 788.583 -93.5344 787.727C-93.0275 786.599 -92.134 785.607 -91.5835 784.523C-91.1561 783.682 -89.7558 783.371 -89.8075 782.252C-89.8445 781.438 -88.2067 780.955 -88.2135 779.986C-86.8708 779.296 -86.9015 778.024 -85.881 777.111L-85.7417 776.993C-84.6153 776.105 -84.0332 774.799 -83.2124 773.676C-82.4701 772.522 -81.6346 771.4 -80.7115 770.316C-78.8912 768.408 -77.6744 766.249 -75.9249 764.341C-74.256 762.522 -73.0517 760.456 -70.9503 758.879C-70.4535 758.507 -70.8114 758.193 -70.5295 757.851C-70.2369 757.493 -69.7183 757.387 -69.4821 757.023C-68.4667 755.573 -75.9882 725.239 24.5596 676.863Z" fill="#FCF2F0"/>
</g>
<defs>
<clipPath id="clip0">
<rect width="375" height="812" fill="white"/>
</clipPath>
</defs>
</svg>
