<svg width="17" height="20" viewBox="0 0 17 20" fill="none" xmlns="http://www.w3.org/2000/svg">
    <path fill-rule="evenodd" clip-rule="evenodd" d="M8.53612 0H8.46479C5.09565 0 2.00654 2.44456 1.70685 5.68096C1.68686 5.91248 1.67324 6.14906 1.66444 6.40391L1.65213 6.99974L1.64969 7.53395L1.66473 7.47306C1.52569 8.15105 1.20525 8.77993 0.736534 9.29378L0.669363 9.3802C0.268036 9.98985 0.0374427 10.6955 0.00174968 11.4242L0.000903941 11.6624C-0.0195851 12.6208 0.308819 13.5691 0.926629 14.3223C1.76444 15.2069 2.84896 15.7346 4.01296 15.8466C6.99 16.1699 10.002 16.1699 12.9873 15.8457C14.1434 15.7393 15.2311 15.2101 16.0338 14.3582C16.6399 13.6331 16.9707 12.763 16.999 11.862L17 11.4587C16.9668 10.698 16.7348 9.99168 16.3286 9.38467L16.2669 9.30546L16.1162 9.12821C15.7776 8.70525 15.5303 8.21802 15.3896 7.69688L15.345 7.50977L15.3358 7.31353C15.333 7.22527 15.3317 7.1274 15.3312 7.00516L15.3311 6.33206C15.3288 6.07458 15.3212 5.89148 15.3034 5.68536C14.9934 2.44285 11.9034 0 8.53612 0ZM8.46479 1.39535H8.53612C11.2336 1.39535 13.6944 3.34075 13.9307 5.81326C13.9447 5.97558 13.9509 6.13044 13.9528 6.3605L13.9555 7.26514C13.9585 7.40982 13.9642 7.53013 13.9739 7.66551L13.9868 7.75818L14.0517 8.03396C14.244 8.7635 14.5893 9.44409 15.0647 10.0309L15.2026 10.1926L15.1873 10.1672C15.451 10.5613 15.6013 11.0186 15.6223 11.4901L15.6216 11.6536C15.6375 12.3097 15.4199 12.933 15.0084 13.4267C14.4645 14.002 13.6871 14.3802 12.8514 14.4572C9.9527 14.7719 7.03928 14.7719 4.15168 14.4583C3.30682 14.377 2.52881 13.9985 1.95369 13.3931C1.58086 12.9356 1.36568 12.3142 1.37919 11.6774L1.37935 11.4587L1.39682 11.2682C1.4389 10.9495 1.54539 10.6265 1.71045 10.3291L1.79415 10.1905C2.40779 9.50037 2.82892 8.66113 3.01441 7.75667L3.02879 7.61486L3.03532 6.69559L3.05137 6.2292C3.05866 6.08207 3.06798 5.94228 3.07967 5.80678C3.30804 3.34087 5.76651 1.39535 8.46479 1.39535ZM1.79415 10.1905C1.77931 10.2072 1.76436 10.2238 1.74929 10.2404L1.79856 10.1833L1.79415 10.1905ZM11.108 17.6906C10.8114 17.4491 10.3775 17.4967 10.1389 17.7969C10.0355 17.927 9.91578 18.0437 9.78256 18.1443C9.33075 18.4986 8.76691 18.6564 8.2064 18.5896C7.64669 18.523 7.13792 18.2381 6.79271 17.7995C6.55551 17.4981 6.12189 17.4484 5.82417 17.6885C5.52646 17.9286 5.4774 18.3676 5.71459 18.6689C6.287 19.3962 7.12578 19.8659 8.0453 19.9754C8.96401 20.0849 9.8891 19.826 10.6167 19.255C10.8327 19.0922 11.0366 18.8935 11.2129 18.6715C11.4515 18.3713 11.4045 17.9321 11.108 17.6906Z" fill="#9DA0AA"/>
</svg>
 
